<mxfile host="app.diagrams.net" modified="2021-03-24T11:03:50.428Z" agent="5.0 (Windows NT 10.0; Win64; x64) AppleWebKit/537.36 (KHTML, like Gecko) Chrome/89.0.4389.90 Safari/537.36" etag="WFgvLmnOZdj9kx6s1ZZL" version="14.5.1" type="github">
  <diagram id="C5RBs43oDa-KdzZeNtuy" name="Page-1">
    <mxGraphModel dx="2249" dy="762" grid="1" gridSize="10" guides="1" tooltips="1" connect="1" arrows="1" fold="1" page="1" pageScale="1" pageWidth="827" pageHeight="1169" math="0" shadow="0">
      <root>
        <mxCell id="WIyWlLk6GJQsqaUBKTNV-0" />
        <mxCell id="WIyWlLk6GJQsqaUBKTNV-1" parent="WIyWlLk6GJQsqaUBKTNV-0" />
        <mxCell id="WIyWlLk6GJQsqaUBKTNV-3" value="선택된 파일 또는 폴더" style="rounded=1;whiteSpace=wrap;html=1;fontSize=12;glass=0;strokeWidth=1;shadow=0;" parent="WIyWlLk6GJQsqaUBKTNV-1" vertex="1">
          <mxGeometry x="-680" y="40" width="130" height="20" as="geometry" />
        </mxCell>
        <mxCell id="WIyWlLk6GJQsqaUBKTNV-4" value="Yes" style="rounded=0;html=1;jettySize=auto;orthogonalLoop=1;fontSize=11;endArrow=block;endFill=0;endSize=8;strokeWidth=1;shadow=0;labelBackgroundColor=none;edgeStyle=orthogonalEdgeStyle;exitX=0.5;exitY=1;exitDx=0;exitDy=0;entryX=0.5;entryY=0;entryDx=0;entryDy=0;" parent="WIyWlLk6GJQsqaUBKTNV-1" source="MPVV-2FYmL4CXVkORiL9-17" target="MPVV-2FYmL4CXVkORiL9-69" edge="1">
          <mxGeometry x="-0.9062" y="-15" relative="1" as="geometry">
            <mxPoint as="offset" />
            <mxPoint x="-615" y="420" as="targetPoint" />
            <Array as="points" />
          </mxGeometry>
        </mxCell>
        <mxCell id="WIyWlLk6GJQsqaUBKTNV-5" value="No" style="edgeStyle=orthogonalEdgeStyle;rounded=0;html=1;jettySize=auto;orthogonalLoop=1;fontSize=11;endArrow=block;endFill=0;endSize=8;strokeWidth=1;shadow=0;labelBackgroundColor=none;entryX=0;entryY=0.5;entryDx=0;entryDy=0;" parent="WIyWlLk6GJQsqaUBKTNV-1" source="WIyWlLk6GJQsqaUBKTNV-6" target="MPVV-2FYmL4CXVkORiL9-2" edge="1">
          <mxGeometry y="10" relative="1" as="geometry">
            <mxPoint as="offset" />
            <mxPoint x="-120" y="240" as="targetPoint" />
          </mxGeometry>
        </mxCell>
        <mxCell id="WIyWlLk6GJQsqaUBKTNV-6" value="선태된 것이 파일인가?" style="rhombus;whiteSpace=wrap;html=1;shadow=0;fontFamily=Helvetica;fontSize=12;align=center;strokeWidth=1;spacing=6;spacingTop=-4;" parent="WIyWlLk6GJQsqaUBKTNV-1" vertex="1">
          <mxGeometry x="-690" y="170" width="150" height="30" as="geometry" />
        </mxCell>
        <mxCell id="MPVV-2FYmL4CXVkORiL9-2" value="선택된 것이 폴더인가?" style="rhombus;whiteSpace=wrap;html=1;" vertex="1" parent="WIyWlLk6GJQsqaUBKTNV-1">
          <mxGeometry x="-255" y="170" width="150" height="30" as="geometry" />
        </mxCell>
        <mxCell id="MPVV-2FYmL4CXVkORiL9-6" value="선택된 것이 프로젝트인가?" style="rhombus;whiteSpace=wrap;html=1;" vertex="1" parent="WIyWlLk6GJQsqaUBKTNV-1">
          <mxGeometry x="150" y="170" width="180" height="30" as="geometry" />
        </mxCell>
        <mxCell id="MPVV-2FYmL4CXVkORiL9-9" value="Yes" style="rounded=0;html=1;jettySize=auto;orthogonalLoop=1;fontSize=11;endArrow=block;endFill=0;endSize=8;strokeWidth=1;shadow=0;labelBackgroundColor=none;edgeStyle=orthogonalEdgeStyle;entryX=0.5;entryY=0;entryDx=0;entryDy=0;exitX=0.5;exitY=1;exitDx=0;exitDy=0;" edge="1" parent="WIyWlLk6GJQsqaUBKTNV-1" source="MPVV-2FYmL4CXVkORiL9-2" target="MPVV-2FYmL4CXVkORiL9-28">
          <mxGeometry y="20" relative="1" as="geometry">
            <mxPoint as="offset" />
            <mxPoint x="-235" y="280" as="sourcePoint" />
            <mxPoint x="-35" y="310" as="targetPoint" />
          </mxGeometry>
        </mxCell>
        <mxCell id="MPVV-2FYmL4CXVkORiL9-13" value="Yes" style="rounded=0;html=1;jettySize=auto;orthogonalLoop=1;fontSize=11;endArrow=block;endFill=0;endSize=8;strokeWidth=1;shadow=0;labelBackgroundColor=none;edgeStyle=orthogonalEdgeStyle;entryX=0.5;entryY=0;entryDx=0;entryDy=0;exitX=0.5;exitY=1;exitDx=0;exitDy=0;" edge="1" parent="WIyWlLk6GJQsqaUBKTNV-1" source="MPVV-2FYmL4CXVkORiL9-6" target="MPVV-2FYmL4CXVkORiL9-16">
          <mxGeometry y="20" relative="1" as="geometry">
            <mxPoint as="offset" />
            <mxPoint x="-25" y="280" as="sourcePoint" />
            <mxPoint x="196" y="310" as="targetPoint" />
          </mxGeometry>
        </mxCell>
        <mxCell id="MPVV-2FYmL4CXVkORiL9-93" style="edgeStyle=orthogonalEdgeStyle;rounded=0;orthogonalLoop=1;jettySize=auto;html=1;exitX=0.5;exitY=1;exitDx=0;exitDy=0;entryX=0.5;entryY=0;entryDx=0;entryDy=0;" edge="1" parent="WIyWlLk6GJQsqaUBKTNV-1" source="MPVV-2FYmL4CXVkORiL9-15" target="MPVV-2FYmL4CXVkORiL9-69">
          <mxGeometry relative="1" as="geometry">
            <mxPoint x="-615" y="420" as="targetPoint" />
            <Array as="points">
              <mxPoint x="-84" y="400" />
              <mxPoint x="-615" y="400" />
            </Array>
          </mxGeometry>
        </mxCell>
        <mxCell id="MPVV-2FYmL4CXVkORiL9-15" value="List에 폴더의 &lt;br&gt;LastSegment 저장" style="rounded=0;whiteSpace=wrap;html=1;" vertex="1" parent="WIyWlLk6GJQsqaUBKTNV-1">
          <mxGeometry x="-160" y="350" width="152.5" height="30" as="geometry" />
        </mxCell>
        <mxCell id="MPVV-2FYmL4CXVkORiL9-16" value="에러 메시지 List에 저장" style="rounded=0;whiteSpace=wrap;html=1;" vertex="1" parent="WIyWlLk6GJQsqaUBKTNV-1">
          <mxGeometry x="163.75" y="220" width="152.5" height="20" as="geometry" />
        </mxCell>
        <mxCell id="MPVV-2FYmL4CXVkORiL9-17" value="파일 폴더 이름 List에 존재하는가?" style="rhombus;whiteSpace=wrap;html=1;" vertex="1" parent="WIyWlLk6GJQsqaUBKTNV-1">
          <mxGeometry x="-715" y="220" width="200" height="50" as="geometry" />
        </mxCell>
        <mxCell id="MPVV-2FYmL4CXVkORiL9-18" value="Yes" style="rounded=0;html=1;jettySize=auto;orthogonalLoop=1;fontSize=11;endArrow=block;endFill=0;endSize=8;strokeWidth=1;shadow=0;labelBackgroundColor=none;edgeStyle=orthogonalEdgeStyle;entryX=0.5;entryY=0;entryDx=0;entryDy=0;" edge="1" parent="WIyWlLk6GJQsqaUBKTNV-1" source="WIyWlLk6GJQsqaUBKTNV-6" target="MPVV-2FYmL4CXVkORiL9-17">
          <mxGeometry y="20" relative="1" as="geometry">
            <mxPoint as="offset" />
            <mxPoint x="-245" y="270" as="sourcePoint" />
            <mxPoint x="-245" y="410" as="targetPoint" />
          </mxGeometry>
        </mxCell>
        <mxCell id="MPVV-2FYmL4CXVkORiL9-96" style="edgeStyle=orthogonalEdgeStyle;rounded=0;orthogonalLoop=1;jettySize=auto;html=1;exitX=0.5;exitY=1;exitDx=0;exitDy=0;entryX=0.5;entryY=0;entryDx=0;entryDy=0;" edge="1" parent="WIyWlLk6GJQsqaUBKTNV-1" source="MPVV-2FYmL4CXVkORiL9-19" target="MPVV-2FYmL4CXVkORiL9-95">
          <mxGeometry relative="1" as="geometry" />
        </mxCell>
        <mxCell id="MPVV-2FYmL4CXVkORiL9-19" value="&lt;span&gt;List에 파일의 폴더 이름 저장&lt;/span&gt;" style="rounded=0;whiteSpace=wrap;html=1;" vertex="1" parent="WIyWlLk6GJQsqaUBKTNV-1">
          <mxGeometry x="-590" y="310" width="160" height="20" as="geometry" />
        </mxCell>
        <mxCell id="MPVV-2FYmL4CXVkORiL9-26" value="No" style="edgeStyle=orthogonalEdgeStyle;rounded=0;html=1;jettySize=auto;orthogonalLoop=1;fontSize=11;endArrow=block;endFill=0;endSize=8;strokeWidth=1;shadow=0;labelBackgroundColor=none;entryX=0;entryY=0.5;entryDx=0;entryDy=0;exitX=1;exitY=0.5;exitDx=0;exitDy=0;" edge="1" parent="WIyWlLk6GJQsqaUBKTNV-1" source="MPVV-2FYmL4CXVkORiL9-2" target="MPVV-2FYmL4CXVkORiL9-6">
          <mxGeometry y="10" relative="1" as="geometry">
            <mxPoint as="offset" />
            <mxPoint x="100" y="235" as="sourcePoint" />
            <mxPoint x="-43.5" y="245" as="targetPoint" />
          </mxGeometry>
        </mxCell>
        <mxCell id="MPVV-2FYmL4CXVkORiL9-28" value="폴더 이름 List에 존재하는가?" style="rhombus;whiteSpace=wrap;html=1;" vertex="1" parent="WIyWlLk6GJQsqaUBKTNV-1">
          <mxGeometry x="-280" y="220" width="200" height="40" as="geometry" />
        </mxCell>
        <mxCell id="MPVV-2FYmL4CXVkORiL9-29" value="Yes" style="rounded=0;html=1;jettySize=auto;orthogonalLoop=1;fontSize=11;endArrow=block;endFill=0;endSize=8;strokeWidth=1;shadow=0;labelBackgroundColor=none;edgeStyle=orthogonalEdgeStyle;exitX=0.5;exitY=1;exitDx=0;exitDy=0;entryX=0.5;entryY=0;entryDx=0;entryDy=0;" edge="1" parent="WIyWlLk6GJQsqaUBKTNV-1" source="MPVV-2FYmL4CXVkORiL9-28" target="MPVV-2FYmL4CXVkORiL9-69">
          <mxGeometry x="-0.9442" y="-20" relative="1" as="geometry">
            <mxPoint as="offset" />
            <mxPoint x="31.5" y="180" as="sourcePoint" />
            <mxPoint x="-615" y="420" as="targetPoint" />
            <Array as="points">
              <mxPoint x="-180" y="400" />
              <mxPoint x="-615" y="400" />
            </Array>
          </mxGeometry>
        </mxCell>
        <mxCell id="MPVV-2FYmL4CXVkORiL9-30" value="No" style="edgeStyle=orthogonalEdgeStyle;rounded=0;html=1;jettySize=auto;orthogonalLoop=1;fontSize=11;endArrow=block;endFill=0;endSize=8;strokeWidth=1;shadow=0;labelBackgroundColor=none;entryX=0.5;entryY=0;entryDx=0;entryDy=0;exitX=1;exitY=0.5;exitDx=0;exitDy=0;" edge="1" parent="WIyWlLk6GJQsqaUBKTNV-1" source="MPVV-2FYmL4CXVkORiL9-28" target="MPVV-2FYmL4CXVkORiL9-85">
          <mxGeometry y="10" relative="1" as="geometry">
            <mxPoint as="offset" />
            <mxPoint x="-90" y="250" as="sourcePoint" />
            <mxPoint x="-460" y="260" as="targetPoint" />
          </mxGeometry>
        </mxCell>
        <mxCell id="MPVV-2FYmL4CXVkORiL9-78" style="edgeStyle=orthogonalEdgeStyle;rounded=0;orthogonalLoop=1;jettySize=auto;html=1;exitX=0.5;exitY=1;exitDx=0;exitDy=0;entryX=0.5;entryY=0;entryDx=0;entryDy=0;" edge="1" parent="WIyWlLk6GJQsqaUBKTNV-1" source="MPVV-2FYmL4CXVkORiL9-43" target="MPVV-2FYmL4CXVkORiL9-69">
          <mxGeometry relative="1" as="geometry">
            <mxPoint x="-615" y="420" as="targetPoint" />
            <Array as="points">
              <mxPoint x="240" y="400" />
              <mxPoint x="-615" y="400" />
            </Array>
          </mxGeometry>
        </mxCell>
        <mxCell id="MPVV-2FYmL4CXVkORiL9-43" value="프로젝트 이름 List에 저장" style="rounded=0;whiteSpace=wrap;html=1;" vertex="1" parent="WIyWlLk6GJQsqaUBKTNV-1">
          <mxGeometry x="163.75" y="270" width="152.5" height="20" as="geometry" />
        </mxCell>
        <mxCell id="MPVV-2FYmL4CXVkORiL9-46" value="" style="edgeStyle=orthogonalEdgeStyle;rounded=0;orthogonalLoop=1;jettySize=auto;html=1;exitX=0.5;exitY=1;exitDx=0;exitDy=0;" edge="1" parent="WIyWlLk6GJQsqaUBKTNV-1" source="MPVV-2FYmL4CXVkORiL9-79" target="MPVV-2FYmL4CXVkORiL9-45">
          <mxGeometry relative="1" as="geometry" />
        </mxCell>
        <mxCell id="MPVV-2FYmL4CXVkORiL9-45" value="선택 파일 갯수 Loop" style="rhombus;whiteSpace=wrap;html=1;shadow=0;fontFamily=Helvetica;fontSize=12;align=center;strokeWidth=1;spacing=6;spacingTop=-4;" vertex="1" parent="WIyWlLk6GJQsqaUBKTNV-1">
          <mxGeometry x="-690" y="120" width="150" height="30" as="geometry" />
        </mxCell>
        <mxCell id="MPVV-2FYmL4CXVkORiL9-47" value="Yes" style="rounded=0;html=1;jettySize=auto;orthogonalLoop=1;fontSize=11;endArrow=block;endFill=0;endSize=8;strokeWidth=1;shadow=0;labelBackgroundColor=none;edgeStyle=orthogonalEdgeStyle;exitX=0.5;exitY=1;exitDx=0;exitDy=0;entryX=0.5;entryY=0;entryDx=0;entryDy=0;" edge="1" parent="WIyWlLk6GJQsqaUBKTNV-1" source="MPVV-2FYmL4CXVkORiL9-45" target="WIyWlLk6GJQsqaUBKTNV-6">
          <mxGeometry y="20" relative="1" as="geometry">
            <mxPoint as="offset" />
            <mxPoint x="-605" y="360" as="sourcePoint" />
            <mxPoint x="-615" y="280" as="targetPoint" />
          </mxGeometry>
        </mxCell>
        <mxCell id="MPVV-2FYmL4CXVkORiL9-51" value="No" style="edgeStyle=orthogonalEdgeStyle;rounded=0;html=1;jettySize=auto;orthogonalLoop=1;fontSize=11;endArrow=block;endFill=0;endSize=8;strokeWidth=1;shadow=0;labelBackgroundColor=none;exitX=0;exitY=0.5;exitDx=0;exitDy=0;entryX=0.5;entryY=0;entryDx=0;entryDy=0;" edge="1" parent="WIyWlLk6GJQsqaUBKTNV-1" source="MPVV-2FYmL4CXVkORiL9-45" target="MPVV-2FYmL4CXVkORiL9-77">
          <mxGeometry x="-0.9251" y="15" relative="1" as="geometry">
            <mxPoint as="offset" />
            <mxPoint x="-690" y="215" as="sourcePoint" />
            <mxPoint x="-615" y="866" as="targetPoint" />
            <Array as="points">
              <mxPoint x="-760" y="135" />
              <mxPoint x="-760" y="680" />
              <mxPoint x="-614" y="680" />
            </Array>
          </mxGeometry>
        </mxCell>
        <mxCell id="MPVV-2FYmL4CXVkORiL9-52" value="" style="endArrow=classic;html=1;exitX=0.5;exitY=1;exitDx=0;exitDy=0;entryX=0.5;entryY=0;entryDx=0;entryDy=0;" edge="1" parent="WIyWlLk6GJQsqaUBKTNV-1" source="MPVV-2FYmL4CXVkORiL9-16" target="MPVV-2FYmL4CXVkORiL9-43">
          <mxGeometry width="50" height="50" relative="1" as="geometry">
            <mxPoint x="-160" y="380" as="sourcePoint" />
            <mxPoint x="-110" y="330" as="targetPoint" />
          </mxGeometry>
        </mxCell>
        <mxCell id="MPVV-2FYmL4CXVkORiL9-54" value="에러 메시지 List가 존재하는가?" style="rhombus;whiteSpace=wrap;html=1;" vertex="1" parent="WIyWlLk6GJQsqaUBKTNV-1">
          <mxGeometry x="-715" y="600" width="200" height="60" as="geometry" />
        </mxCell>
        <mxCell id="MPVV-2FYmL4CXVkORiL9-58" value="Yes" style="rounded=0;html=1;jettySize=auto;orthogonalLoop=1;fontSize=11;endArrow=block;endFill=0;endSize=8;strokeWidth=1;shadow=0;labelBackgroundColor=none;edgeStyle=orthogonalEdgeStyle;entryX=0.5;entryY=0;entryDx=0;entryDy=0;" edge="1" parent="WIyWlLk6GJQsqaUBKTNV-1" source="MPVV-2FYmL4CXVkORiL9-54" target="MPVV-2FYmL4CXVkORiL9-77">
          <mxGeometry x="-0.6" y="15" relative="1" as="geometry">
            <mxPoint as="offset" />
            <mxPoint x="-170" y="530" as="sourcePoint" />
            <mxPoint x="-615" y="916" as="targetPoint" />
            <Array as="points" />
          </mxGeometry>
        </mxCell>
        <mxCell id="MPVV-2FYmL4CXVkORiL9-66" value="No" style="edgeStyle=orthogonalEdgeStyle;rounded=0;html=1;jettySize=auto;orthogonalLoop=1;fontSize=11;endArrow=block;endFill=0;endSize=8;strokeWidth=1;shadow=0;labelBackgroundColor=none;entryX=0.5;entryY=0;entryDx=0;entryDy=0;exitX=1;exitY=0.5;exitDx=0;exitDy=0;" edge="1" parent="WIyWlLk6GJQsqaUBKTNV-1" source="MPVV-2FYmL4CXVkORiL9-17" target="MPVV-2FYmL4CXVkORiL9-82">
          <mxGeometry y="10" relative="1" as="geometry">
            <mxPoint as="offset" />
            <mxPoint x="-515" y="250" as="sourcePoint" />
            <mxPoint x="-470" y="250" as="targetPoint" />
          </mxGeometry>
        </mxCell>
        <mxCell id="MPVV-2FYmL4CXVkORiL9-67" value="No" style="edgeStyle=orthogonalEdgeStyle;rounded=0;html=1;jettySize=auto;orthogonalLoop=1;fontSize=11;endArrow=block;endFill=0;endSize=8;strokeWidth=1;shadow=0;labelBackgroundColor=none;entryX=1;entryY=0.5;entryDx=0;entryDy=0;exitX=1;exitY=0.5;exitDx=0;exitDy=0;" edge="1" parent="WIyWlLk6GJQsqaUBKTNV-1" source="MPVV-2FYmL4CXVkORiL9-54" target="MPVV-2FYmL4CXVkORiL9-45">
          <mxGeometry x="-0.9776" y="10" relative="1" as="geometry">
            <mxPoint as="offset" />
            <mxPoint x="-515" y="649.5" as="sourcePoint" />
            <mxPoint x="-230" y="649.5" as="targetPoint" />
            <Array as="points">
              <mxPoint x="360" y="630" />
              <mxPoint x="360" y="135" />
            </Array>
          </mxGeometry>
        </mxCell>
        <mxCell id="MPVV-2FYmL4CXVkORiL9-73" style="edgeStyle=orthogonalEdgeStyle;rounded=0;orthogonalLoop=1;jettySize=auto;html=1;exitX=0.5;exitY=1;exitDx=0;exitDy=0;entryX=0.5;entryY=0;entryDx=0;entryDy=0;" edge="1" parent="WIyWlLk6GJQsqaUBKTNV-1" source="MPVV-2FYmL4CXVkORiL9-69" target="MPVV-2FYmL4CXVkORiL9-71">
          <mxGeometry relative="1" as="geometry" />
        </mxCell>
        <mxCell id="MPVV-2FYmL4CXVkORiL9-69" value="List 폴더 이름에서&lt;br&gt;List 파일의 폴더 이름이 존재하는가" style="rhombus;whiteSpace=wrap;html=1;" vertex="1" parent="WIyWlLk6GJQsqaUBKTNV-1">
          <mxGeometry x="-737.5" y="430" width="245" height="50" as="geometry" />
        </mxCell>
        <mxCell id="MPVV-2FYmL4CXVkORiL9-75" style="edgeStyle=orthogonalEdgeStyle;rounded=0;orthogonalLoop=1;jettySize=auto;html=1;exitX=0.5;exitY=1;exitDx=0;exitDy=0;entryX=0.5;entryY=0;entryDx=0;entryDy=0;" edge="1" parent="WIyWlLk6GJQsqaUBKTNV-1" source="MPVV-2FYmL4CXVkORiL9-71" target="MPVV-2FYmL4CXVkORiL9-72">
          <mxGeometry relative="1" as="geometry" />
        </mxCell>
        <mxCell id="MPVV-2FYmL4CXVkORiL9-71" value="&lt;span&gt;List에 파일의 폴더 이름 삭제&lt;/span&gt;" style="rounded=0;whiteSpace=wrap;html=1;" vertex="1" parent="WIyWlLk6GJQsqaUBKTNV-1">
          <mxGeometry x="-695" y="510" width="160" height="20" as="geometry" />
        </mxCell>
        <mxCell id="MPVV-2FYmL4CXVkORiL9-76" style="edgeStyle=orthogonalEdgeStyle;rounded=0;orthogonalLoop=1;jettySize=auto;html=1;exitX=0.5;exitY=1;exitDx=0;exitDy=0;entryX=0.5;entryY=0;entryDx=0;entryDy=0;" edge="1" parent="WIyWlLk6GJQsqaUBKTNV-1" source="MPVV-2FYmL4CXVkORiL9-72" target="MPVV-2FYmL4CXVkORiL9-54">
          <mxGeometry relative="1" as="geometry" />
        </mxCell>
        <mxCell id="MPVV-2FYmL4CXVkORiL9-72" value="파일 폴더 이름 Pass 값을 Map에 저장" style="rounded=0;whiteSpace=wrap;html=1;" vertex="1" parent="WIyWlLk6GJQsqaUBKTNV-1">
          <mxGeometry x="-695" y="550" width="160" height="29" as="geometry" />
        </mxCell>
        <mxCell id="MPVV-2FYmL4CXVkORiL9-74" value="Yes" style="text;html=1;align=center;verticalAlign=middle;resizable=0;points=[];autosize=1;" vertex="1" parent="WIyWlLk6GJQsqaUBKTNV-1">
          <mxGeometry x="-620" y="480" width="40" height="20" as="geometry" />
        </mxCell>
        <mxCell id="MPVV-2FYmL4CXVkORiL9-77" value="폴드 정보 List와 파일 정보 List를 돌려준다." style="shape=process;whiteSpace=wrap;html=1;backgroundOutline=1;" vertex="1" parent="WIyWlLk6GJQsqaUBKTNV-1">
          <mxGeometry x="-675" y="700" width="120" height="60" as="geometry" />
        </mxCell>
        <mxCell id="MPVV-2FYmL4CXVkORiL9-79" value="SQL 품질 점검" style="strokeWidth=2;html=1;shape=mxgraph.flowchart.start_1;whiteSpace=wrap;" vertex="1" parent="WIyWlLk6GJQsqaUBKTNV-1">
          <mxGeometry x="-665" y="80" width="100" height="20" as="geometry" />
        </mxCell>
        <mxCell id="MPVV-2FYmL4CXVkORiL9-80" value="" style="edgeStyle=orthogonalEdgeStyle;rounded=0;orthogonalLoop=1;jettySize=auto;html=1;exitX=0.5;exitY=1;exitDx=0;exitDy=0;" edge="1" parent="WIyWlLk6GJQsqaUBKTNV-1" source="WIyWlLk6GJQsqaUBKTNV-3" target="MPVV-2FYmL4CXVkORiL9-79">
          <mxGeometry relative="1" as="geometry">
            <mxPoint x="-615" y="80" as="sourcePoint" />
            <mxPoint x="-615" y="180" as="targetPoint" />
          </mxGeometry>
        </mxCell>
        <mxCell id="MPVV-2FYmL4CXVkORiL9-83" value="No" style="edgeStyle=orthogonalEdgeStyle;rounded=0;orthogonalLoop=1;jettySize=auto;html=1;exitX=0;exitY=0.5;exitDx=0;exitDy=0;entryX=0.5;entryY=0;entryDx=0;entryDy=0;" edge="1" parent="WIyWlLk6GJQsqaUBKTNV-1" source="MPVV-2FYmL4CXVkORiL9-82" target="MPVV-2FYmL4CXVkORiL9-19">
          <mxGeometry x="-0.6923" y="-15" relative="1" as="geometry">
            <mxPoint as="offset" />
          </mxGeometry>
        </mxCell>
        <mxCell id="MPVV-2FYmL4CXVkORiL9-103" value="Yes" style="edgeStyle=orthogonalEdgeStyle;rounded=0;orthogonalLoop=1;jettySize=auto;html=1;exitX=0.5;exitY=1;exitDx=0;exitDy=0;entryX=0.5;entryY=0;entryDx=0;entryDy=0;" edge="1" parent="WIyWlLk6GJQsqaUBKTNV-1" source="MPVV-2FYmL4CXVkORiL9-82" target="MPVV-2FYmL4CXVkORiL9-69">
          <mxGeometry x="-0.8797" y="13" relative="1" as="geometry">
            <Array as="points">
              <mxPoint x="-392" y="400" />
              <mxPoint x="-615" y="400" />
            </Array>
            <mxPoint as="offset" />
          </mxGeometry>
        </mxCell>
        <mxCell id="MPVV-2FYmL4CXVkORiL9-82" value="파일 폴더 이름이&lt;br&gt;pass Map에 존재하는가?" style="rhombus;whiteSpace=wrap;html=1;" vertex="1" parent="WIyWlLk6GJQsqaUBKTNV-1">
          <mxGeometry x="-492.5" y="270" width="200" height="50" as="geometry" />
        </mxCell>
        <mxCell id="MPVV-2FYmL4CXVkORiL9-89" value="No" style="edgeStyle=orthogonalEdgeStyle;rounded=0;orthogonalLoop=1;jettySize=auto;html=1;exitX=0;exitY=0.5;exitDx=0;exitDy=0;entryX=0.5;entryY=0;entryDx=0;entryDy=0;" edge="1" parent="WIyWlLk6GJQsqaUBKTNV-1" source="MPVV-2FYmL4CXVkORiL9-85" target="MPVV-2FYmL4CXVkORiL9-86">
          <mxGeometry x="-0.3522" y="-15" relative="1" as="geometry">
            <mxPoint as="offset" />
          </mxGeometry>
        </mxCell>
        <mxCell id="MPVV-2FYmL4CXVkORiL9-92" value="Yes" style="edgeStyle=orthogonalEdgeStyle;rounded=0;orthogonalLoop=1;jettySize=auto;html=1;exitX=0.5;exitY=1;exitDx=0;exitDy=0;entryX=1;entryY=0.5;entryDx=0;entryDy=0;" edge="1" parent="WIyWlLk6GJQsqaUBKTNV-1" source="MPVV-2FYmL4CXVkORiL9-85" target="MPVV-2FYmL4CXVkORiL9-15">
          <mxGeometry x="-0.6048" y="16" relative="1" as="geometry">
            <mxPoint as="offset" />
          </mxGeometry>
        </mxCell>
        <mxCell id="MPVV-2FYmL4CXVkORiL9-85" value="첫번 째 폴더 이름인가?" style="rhombus;whiteSpace=wrap;html=1;" vertex="1" parent="WIyWlLk6GJQsqaUBKTNV-1">
          <mxGeometry x="-56.25" y="270" width="200" height="30" as="geometry" />
        </mxCell>
        <mxCell id="MPVV-2FYmL4CXVkORiL9-91" style="edgeStyle=orthogonalEdgeStyle;rounded=0;orthogonalLoop=1;jettySize=auto;html=1;exitX=0.5;exitY=1;exitDx=0;exitDy=0;entryX=0.5;entryY=0;entryDx=0;entryDy=0;" edge="1" parent="WIyWlLk6GJQsqaUBKTNV-1" source="MPVV-2FYmL4CXVkORiL9-86" target="MPVV-2FYmL4CXVkORiL9-15">
          <mxGeometry relative="1" as="geometry" />
        </mxCell>
        <mxCell id="MPVV-2FYmL4CXVkORiL9-86" value="에러 메시지 List에 저장" style="rounded=0;whiteSpace=wrap;html=1;" vertex="1" parent="WIyWlLk6GJQsqaUBKTNV-1">
          <mxGeometry x="-160" y="310" width="152.5" height="20" as="geometry" />
        </mxCell>
        <mxCell id="MPVV-2FYmL4CXVkORiL9-100" style="edgeStyle=orthogonalEdgeStyle;rounded=0;orthogonalLoop=1;jettySize=auto;html=1;exitX=0.5;exitY=1;exitDx=0;exitDy=0;entryX=0.5;entryY=0;entryDx=0;entryDy=0;" edge="1" parent="WIyWlLk6GJQsqaUBKTNV-1" source="MPVV-2FYmL4CXVkORiL9-95" target="MPVV-2FYmL4CXVkORiL9-69">
          <mxGeometry relative="1" as="geometry">
            <Array as="points">
              <mxPoint x="-510" y="400" />
              <mxPoint x="-615" y="400" />
            </Array>
          </mxGeometry>
        </mxCell>
        <mxCell id="MPVV-2FYmL4CXVkORiL9-95" value="List에 파일의&lt;br&gt;LastSegment&amp;nbsp;저장" style="rounded=0;whiteSpace=wrap;html=1;" vertex="1" parent="WIyWlLk6GJQsqaUBKTNV-1">
          <mxGeometry x="-586.25" y="350" width="152.5" height="30" as="geometry" />
        </mxCell>
        <mxCell id="MPVV-2FYmL4CXVkORiL9-98" value="SQL 품질 점검의&amp;nbsp; N개 파일 선택 및 폴더 1개 지원 그리고 선택된 파일의 폴더 정보가 선택되어 있으면 파일 정보는 무시" style="strokeWidth=2;html=1;shape=mxgraph.flowchart.annotation_2;align=left;labelPosition=right;pointerEvents=1;" vertex="1" parent="WIyWlLk6GJQsqaUBKTNV-1">
          <mxGeometry x="-370" y="50" width="10" height="30" as="geometry" />
        </mxCell>
      </root>
    </mxGraphModel>
  </diagram>
</mxfile>
